# xmcd
#
# Track frame offsets:
#	150
#	14853
#	31060
#	48688
#	64964
#	80775
#	95102
#	110405
#	130281
#	151057
#	168347
#	186498
#	205926
#	223852
#	242904
#
# Disc length: 3486 seconds
#
# Revision: 2
# Processed by: cddbd v1.5.2PL0 Copyright (c) Steve Scherf et al.
# Submitted via: audiograbber 1.83.01
#
DISCID=e40d9c0f
DTITLE=Various Artist - CB60321
DYEAR=2004
DGENRE=
TTITLE0=SCOTTY EMERICK - WHERE'S MY BEER?
TTITLE1=SHANIA TWAIN - IT ONLY HERTS WHEN I'M BREATHING
TTITLE2=TRINI TRIGGS - HEAVEN ON EARTH
TTITLE3=SHE DAISY - PASSENGER SEAT
TTITLE4=JEFF BATES  - I WANNA MAKE YOU CRY
TTITLE5=AMY DALLEY - MEN DON'T CHANGE
TTITLE6=DAVID LEE MURPHY - LOCO
TTITLE7=DOLLY PARTON - WELCOME HOME
TTITLE8=JOHN MICHAEL MONTGOMERY - LETTERS FROM HOME 
TTITLE9=GRETCHEN WILSON - REDNECK WOMAN
TTITLE10=COLT PRATHER - I WON'T GO ON AND ON
TTITLE11=SHERRIE' AUSTIN - DRIVIN' INTO THE SUN
TTITLE12=JOHN BERRY - WILL YOU MARRY ME?
TTITLE13=JULIE ROBERTS - BREAK DOWN HERE
TTITLE14=ANDY GRIGGS - SHE THINKS SHE NEEDS ME
EXTD=
EXTT0=
EXTT1=
EXTT2=
EXTT3=
EXTT4=
EXTT5=
EXTT6=
EXTT7=
EXTT8=
EXTT9=
EXTT10=
EXTT11=
EXTT12=
EXTT13=
EXTT14=
PLAYORDER=
